<svg xmlns="http://www.w3.org/2000/svg" viewBox="0 0 80 80" fill="none">
  <defs>
    <linearGradient id="hg" x1="8" y1="8" x2="72" y2="70" gradientUnits="userSpaceOnUse">
      <stop offset="0%" stop-color="#0ea5e9"/>
      <stop offset="50%" stop-color="#0d9488"/>
      <stop offset="100%" stop-color="#0ea5e9"/>
    </linearGradient>
  </defs>
  <path d="M40 70 C40 70 8 48 8 28 C8 16 17 8 28 8 C33.5 8 38 10.5 40 14 C42 10.5 46.5 8 52 8 C63 8 72 16 72 28 C72 48 40 70 40 70Z" fill="url(#hg)"/>
  <polyline points="12,40 26,40 30,40 34,32 38,50 42,28 46,46 50,36 54,40 68,40" fill="none" stroke="white" stroke-width="3" stroke-linecap="round" stroke-linejoin="round"/>
</svg>
